# xmcd CD database file
# Copyright (C) 1993-1998 Ti Kan
#
# Track frame offsets:
#	182
#	19400
#	36127
#	56172
#	73527
#	95245
#	113825
#	136250
#	154172
#	173942
#
# Disc length: 2531 seconds
#
# Revision: 2
# Processed by: cddbd v1.4PL0 Copyright (c) Steve Scherf et al.
# Submitted via: Gronk 1.4
#
DISCID=8d09e10a
DTITLE=The Highliners - Today's Country Line Dance Favorites
DYEAR=1900
DGENRE=country
TTITLE0=Achy Breaky Heart
TTITLE1=Down At The Twist And Shout
TTITLE2=Boot Scootin' Boogie
TTITLE3=Guitars, Cadillacs
TTITLE4=One More Last Chance
TTITLE5=Don't Rock The Jukebox
TTITLE6=Blame It On Your Heart
TTITLE7=T-r-o-u-b-l-e
TTITLE8=Swingin'
TTITLE9=Chattahoochee
EXTD=
EXTT0=
EXTT1=
EXTT2=
EXTT3=
EXTT4=
EXTT5=
EXTT6=
EXTT7=
EXTT8=
EXTT9=
PLAYORDER=
